<?xml version="1.0" encoding="UTF-8" standalone="no"?>
<!-- Generator: Adobe Illustrator 13.0.0, SVG Export Plug-In . SVG Version: 6.00 Build 14948)  -->

<svg
   xmlns:dc="http://purl.org/dc/elements/1.1/"
   xmlns:cc="http://creativecommons.org/ns#"
   xmlns:rdf="http://www.w3.org/1999/02/22-rdf-syntax-ns#"
   xmlns:svg="http://www.w3.org/2000/svg"
   xmlns="http://www.w3.org/2000/svg"
   xmlns:sodipodi="http://sodipodi.sourceforge.net/DTD/sodipodi-0.dtd"
   xmlns:inkscape="http://www.inkscape.org/namespaces/inkscape"
   version="1.1"
   id="Layer_1"
   x="0px"
   y="0px"
   width="40mm"
   height="40mm"
   viewBox="0 0 141.73228 141.73228"
   enable-background="new 0 0 100 100"
   xml:space="preserve"
   sodipodi:docname="NgabaCloud.svg"
   inkscape:version="0.91 r13725"><metadata
     id="metadata25"><rdf:RDF><cc:Work
         rdf:about=""><dc:format>image/svg+xml</dc:format><dc:type
           rdf:resource="http://purl.org/dc/dcmitype/StillImage" /><dc:title></dc:title></cc:Work></rdf:RDF></metadata><defs
     id="defs23" /><sodipodi:namedview
     pagecolor="#ffffff"
     bordercolor="#666666"
     borderopacity="1"
     objecttolerance="10"
     gridtolerance="10"
     guidetolerance="10"
     inkscape:pageopacity="0"
     inkscape:pageshadow="2"
     inkscape:window-width="1366"
     inkscape:window-height="699"
     id="namedview21"
     showgrid="false"
     inkscape:zoom="2.36"
     inkscape:cx="-17.059059"
     inkscape:cy="52.398026"
     inkscape:window-x="0"
     inkscape:window-y="24"
     inkscape:window-maximized="1"
     inkscape:current-layer="Layer_1"
     units="mm"
     height="40mm" /><g
     id="g18"
     transform="matrix(1.6150065,0,0,1.6707034,-0.95561244,-34.596216)"
     style="fill:#000000"><g
       id="g6"
       style="fill:#000000"><path
         d="m 43.381,72.556 c -9.471,7.932 -24.073,-8.587 -33.592,-8 -2.563,0.156 -5.114,1.641 -5.197,3.601 -0.22,5.451 12.525,6.593 14.801,2 -0.538,6.261 -15.604,5.556 -16.004,-0.799 -0.232,-3.78 4.744,-5.862 8.002,-6.008 11.815,-0.522 20.669,12.806 31.99,9.206 z"
         id="path2"
         inkscape:connector-curvature="0"
         style="clip-rule:evenodd;fill:#000000;fill-rule:evenodd" /><path
         d="m 44.986,72.954 c 10.193,3.313 20.543,-9.776 31.997,-9.604 3.491,0.062 8.413,2.055 8.387,5.604 -0.041,6.489 -14.546,7.904 -16.387,1.203 2.466,4.248 14.922,3.689 15.189,-1.603 0.11,-2.144 -2.328,-3.768 -4.798,-3.998 C 69.27,63.604 56.503,80.028 44.986,72.954 Z"
         id="path4"
         inkscape:connector-curvature="0"
         style="clip-rule:evenodd;fill:#000000;fill-rule:evenodd" /></g><g
       id="g12"
       style="fill:#000000"><path
         d="m 43.647,81.06 c -6.94,5.813 -17.639,-6.291 -24.614,-5.862 -1.879,0.115 -3.748,1.203 -3.809,2.64 -0.162,3.993 9.178,4.831 10.844,1.465 -0.393,4.587 -11.433,4.069 -11.724,-0.585 -0.171,-2.77 3.474,-4.296 5.862,-4.401 8.658,-0.383 15.147,9.382 23.441,6.743 z"
         id="path8"
         inkscape:connector-curvature="0"
         style="clip-rule:evenodd;fill:#000000;fill-rule:evenodd" /><path
         d="m 44.822,81.351 c 7.47,2.43 15.056,-7.162 23.445,-7.035 2.558,0.044 6.164,1.507 6.146,4.106 -0.029,4.753 -10.66,5.791 -12.009,0.88 1.808,3.112 10.935,2.704 11.131,-1.174 0.081,-1.571 -1.705,-2.761 -3.516,-2.931 -7.403,-0.696 -16.756,11.338 -25.197,6.154 z"
         id="path10"
         inkscape:connector-curvature="0"
         style="clip-rule:evenodd;fill:#000000;fill-rule:evenodd" /></g><g
       id="g16"
       style="fill:#000000"><path
         d="m 35.126,28.586 2.891,-0.071 10.292,28.206 0,-28.206 2.68,0 0,41.318 -2.257,0 -10.854,-30.322 0,30.322 -2.751,0 0,-41.247 z"
         id="path14"
         inkscape:connector-curvature="0"
         style="fill:#000000" /></g></g><text
     xml:space="preserve"
     style="font-style:normal;font-weight:normal;font-size:65.70475769px;line-height:1.25;font-family:sans-serif;letter-spacing:0px;word-spacing:0px;fill:#000000;fill-opacity:1;stroke:none"
     x="41.733093"
     y="120.50291"
     id="text29"
     transform="scale(0.98319001,1.0170974)"><tspan
       sodipodi:role="line"
       id="tspan27"
       x="41.733093"
       y="120.50291"
       style="font-size:17.52126884px;fill:#000000">Studios</tspan></text>
</svg>